<svg width="100%" height="100%" viewBox="0 0 592 666" version="1.1" xmlns="http://www.w3.org/2000/svg" xmlns:xlink="http://www.w3.org/1999/xlink" xml:space="preserve" xmlns:serif="http://www.serif.com/" style="fill-rule:evenodd;clip-rule:evenodd;stroke-linejoin:round;stroke-miterlimit:2;">
    <path d="M234.466,426.949C234.639,426.949 234.812,426.948 234.984,426.947C235.026,426.948 235.07,426.948 235.115,426.949L279.218,426.949C279.227,430.096 279.231,431.958 279.23,432.533C279.131,477.428 279.14,522.312 279.221,567.204C279.224,570.372 278.226,572.176 275.335,573.558C260.193,580.85 248.766,599.665 251.884,619.788C255.5,643.166 279.541,660.82 302.742,656.287C323.18,652.3 336.607,638.359 339.482,616.913C341.428,602.368 334.425,583.167 315.702,573.552C313.161,572.256 311.759,570.838 311.768,567.72C311.861,524.115 311.87,480.51 311.768,436.913L311.768,426.949L366.322,426.949C368.009,426.949 369.685,426.814 371.335,426.55C383.764,425.28 395.289,421.045 405.154,414.58L482.605,459.401C485.157,461.124 487.121,462.376 488.499,463.158C492.349,465.335 493.835,467.741 493.721,472.244C493.034,498.337 515.807,519.651 542.358,516.823C568.425,514.055 586.894,488.99 580.847,463.645C573.599,433.27 540.666,419.564 514.064,435.982C511.26,437.708 509.234,438.18 506.242,436.43C483.732,423.291 461.168,410.242 438.511,397.357C437.724,396.91 434.259,394.712 428.117,390.764C434.657,379.885 438.407,367.206 438.407,353.663C438.407,326.784 423.687,303.454 401.845,290.702L402.127,290.54C402.506,290.255 402.94,289.974 403.432,289.692C413.013,284.211 422.589,278.722 432.162,273.225L495.78,236.549C499.297,234.514 502.813,232.477 506.329,230.44C509.087,228.848 510.959,228.821 513.667,230.637C523.318,237.108 534.138,239.156 545.491,237.17C567.588,233.3 583.603,213.324 581.634,189.743C579.49,164.161 554.374,145.039 529.287,150.587C507.273,155.457 493.443,172.645 493.697,195.24C493.733,199.089 492.663,201.284 489.226,203.249C480.356,208.319 471.492,213.397 462.634,218.484L462.64,218.495L381.55,265.416C367.261,240.41 341.761,222.417 311.835,217.716C311.844,179.702 311.917,141.687 311.712,103.676C311.682,97.972 313.015,94.667 318.365,91.597C337.546,80.588 344.836,56.887 336.06,36.678C327.21,16.292 304.601,5.402 283.397,11.855C264.097,17.728 253.339,31.348 251.447,51.169C249.992,66.464 257.234,83.454 274.708,92.995C277.392,94.458 279.263,95.745 279.251,99.424C279.215,110.613 279.189,121.802 279.172,132.99L279.817,217.848C253.288,222.244 229.904,237.147 215.08,258.747C211.284,259.581 207.58,260.655 203.985,261.952C170.58,242.882 137.323,223.545 103.859,204.566C98.841,201.723 96.42,198.674 97.256,192.899C97.591,190.597 96.88,188.13 96.503,185.759C93.075,164.173 71.943,146.117 46.434,150.303C21.41,154.418 5.521,177.04 9.652,201.254C14.918,232.178 50.242,247.831 76.892,230.915C79.899,229.006 81.98,228.857 85.061,230.652C91.39,234.339 101.014,239.643 113.935,246.564L173.284,280.838C156.997,296.261 146.843,317.816 146.843,341.8C146.843,360.338 152.907,377.419 163.177,391.34L94.036,431.2C89.533,433.553 86.162,435.366 83.923,436.639C82.422,437.49 79.508,437.314 77.983,436.394C70.813,432.07 63.176,429.197 54.819,428.974C27.015,428.263 10.106,450.951 9.156,470.662C8.056,493.75 25.541,517.399 53.82,517.187C78.62,517.002 97.493,497.136 97.247,472.349C97.209,467.921 98.512,465.415 102.401,463.209C121.504,452.342 150.02,435.928 187.949,413.968C201.459,422.202 217.423,426.949 234.466,426.949ZM564.754,240.138C561.525,242.066 560.405,244.03 560.414,247.706C560.525,304.627 560.516,361.55 560.429,418.459C560.423,421.878 561.295,423.941 564.434,425.746C584.671,437.432 594.912,458.987 591.277,481.646C587.792,503.359 570.422,521.195 547.922,525.466C534.877,527.952 522.241,525.973 510.808,518.963C507.323,516.832 504.868,517.208 501.601,519.088C452.631,547.432 403.608,575.702 354.527,603.863C351.171,605.794 349.913,607.913 349.922,611.828C349.973,639.214 328.82,663.046 302.395,665.702C274.25,668.54 249.366,650.867 243.286,623.577C242.354,619.381 242.04,614.994 241.945,610.7C241.873,607.791 241.067,606.009 238.478,604.511C188.719,575.91 139.003,547.241 89.307,518.53C86.617,516.964 84.502,516.952 81.787,518.593C49.315,538.125 7.928,519.402 1.041,482.914C-3.304,459.864 6.085,438.312 26.731,426.173C29.992,424.248 31.468,422.311 31.462,418.327C31.312,361.401 31.336,304.486 31.426,247.569C31.429,244.149 30.539,242.126 27.406,240.308C6.68,228.279 -3.071,207.378 0.91,183.91C4.864,160.598 22.905,143.495 46.385,140.153C58.97,138.365 71.108,140.657 81.996,147.604C84.526,149.222 86.405,149.171 88.979,147.688C138.528,119.037 188.116,90.466 237.743,61.961C240.744,60.236 241.915,58.258 241.924,54.724C242.005,23.376 266.796,-0.623 298.208,0.012C322.691,0.502 345.601,20.696 349.074,44.838C349.391,47.058 349.889,48.425 349.889,51.481C349.889,58.174 352.356,61.012 357.571,63.99C405.725,91.523 453.745,119.27 501.732,147.064C505.03,148.98 507.425,149.058 510.859,147.112C543.454,128.535 582.974,146.339 590.91,183.098C591.656,186.518 591.585,190.117 591.844,193.242C591.31,214.107 582.246,229.658 564.754,240.138ZM526,472.435C526,465.223 531.181,459.985 538.277,460C545.109,460.036 550.931,465.674 550.999,472.349C551.074,478.774 544.853,484.988 538.378,485C531.445,485 526.003,479.48 526,472.435ZM283,54.396C283.027,47.402 288.475,42.006 295.515,42C302.567,41.994 307.973,47.379 308,54.398C308.018,61.13 302.145,67.082 295.539,66.999C288.822,66.934 282.979,61.053 283,54.396ZM66,472.485C65.973,479.525 60.48,485.056 53.579,485C47.058,484.937 41.03,478.86 41,472.298C40.967,465.742 46.933,460 53.778,460C60.869,460.006 66.027,465.27 66,472.485ZM295.653,600C302.688,600.049 308.033,605.513 308,612.624C307.955,619.709 302.531,625.045 295.401,625C288.33,624.963 282.924,619.46 283.001,612.37C283.081,605.319 288.592,599.946 295.653,600ZM53.918,205.999C46.789,206.063 41.217,200.756 41.006,193.719C40.795,186.861 46.433,181.105 53.46,181.002C60.797,180.89 65.894,185.884 65.998,193.273C66.108,200.698 61.133,205.933 53.918,205.999ZM538.133,206C530.924,205.948 525.929,200.706 526.001,193.284C526.072,185.915 531.186,180.904 538.525,181.001C545.562,181.101 551.163,186.804 550.996,193.696C550.83,200.679 545.217,206.051 538.133,206ZM235.011,396C203.525,396 178,371.43 178,341.122C178,310.936 203.319,286.443 234.629,286.245C244.651,262.628 268.615,246 296.584,246C333.253,246 363.038,274.581 363.543,310.025C363.581,310.024 363.619,310.024 363.658,310.024C388.147,310.024 408,329.271 408,353.012C408,375.665 389.927,394.225 366.997,395.88C366.842,395.957 366.667,396 366.482,396L235.659,396C235.632,396 235.606,396 235.579,395.997C235.39,396 235.201,396 235.011,396Z" fill="#2683FF"/>
</svg>
